<mxfile host="Electron" agent="Mozilla/5.0 (Windows NT 10.0; Win64; x64) AppleWebKit/537.36 (KHTML, like Gecko) draw.io/24.7.8 Chrome/128.0.6613.36 Electron/32.0.1 Safari/537.36" version="24.7.8">
  <diagram name="Страница — 1" id="39_J0FPo_y5_ycT7SvWb">
    <mxGraphModel dx="555" dy="973" grid="1" gridSize="10" guides="1" tooltips="1" connect="1" arrows="1" fold="1" page="1" pageScale="1" pageWidth="827" pageHeight="1169" math="0" shadow="0">
      <root>
        <mxCell id="0" />
        <mxCell id="1" parent="0" />
        <mxCell id="Z5KbD5RuV3KRp7joWpTC-1" value="Заказчик" style="shape=umlActor;verticalLabelPosition=bottom;verticalAlign=top;html=1;" vertex="1" parent="1">
          <mxGeometry x="80" y="20" width="30" height="60" as="geometry" />
        </mxCell>
        <mxCell id="Z5KbD5RuV3KRp7joWpTC-2" value="Заказчик" style="shape=umlActor;verticalLabelPosition=bottom;verticalAlign=top;html=1;" vertex="1" parent="1">
          <mxGeometry x="80" y="500" width="30" height="60" as="geometry" />
        </mxCell>
        <mxCell id="Z5KbD5RuV3KRp7joWpTC-3" value="Курьер" style="shape=umlActor;verticalLabelPosition=bottom;verticalAlign=top;html=1;" vertex="1" parent="1">
          <mxGeometry x="350" y="20" width="30" height="60" as="geometry" />
        </mxCell>
        <mxCell id="Z5KbD5RuV3KRp7joWpTC-4" value="Курьер" style="shape=umlActor;verticalLabelPosition=bottom;verticalAlign=top;html=1;" vertex="1" parent="1">
          <mxGeometry x="350" y="500" width="30" height="60" as="geometry" />
        </mxCell>
        <mxCell id="Z5KbD5RuV3KRp7joWpTC-5" value="" style="endArrow=none;dashed=1;html=1;dashPattern=1 3;strokeWidth=2;rounded=0;entryX=0.5;entryY=0;entryDx=0;entryDy=0;entryPerimeter=0;exitX=0.483;exitY=0.808;exitDx=0;exitDy=0;exitPerimeter=0;" edge="1" parent="1" source="Z5KbD5RuV3KRp7joWpTC-27" target="Z5KbD5RuV3KRp7joWpTC-2">
          <mxGeometry width="50" height="50" relative="1" as="geometry">
            <mxPoint x="100" y="100" as="sourcePoint" />
            <mxPoint x="380" y="300" as="targetPoint" />
          </mxGeometry>
        </mxCell>
        <mxCell id="Z5KbD5RuV3KRp7joWpTC-6" value="" style="endArrow=none;dashed=1;html=1;dashPattern=1 3;strokeWidth=2;rounded=0;entryX=0.511;entryY=0.725;entryDx=0;entryDy=0;entryPerimeter=0;exitX=0.5;exitY=0;exitDx=0;exitDy=0;exitPerimeter=0;" edge="1" parent="1" source="Z5KbD5RuV3KRp7joWpTC-29" target="Z5KbD5RuV3KRp7joWpTC-3">
          <mxGeometry width="50" height="50" relative="1" as="geometry">
            <mxPoint x="340" y="300" as="sourcePoint" />
            <mxPoint x="390" y="250" as="targetPoint" />
          </mxGeometry>
        </mxCell>
        <mxCell id="Z5KbD5RuV3KRp7joWpTC-7" value="Система" style="rounded=1;whiteSpace=wrap;html=1;" vertex="1" parent="1">
          <mxGeometry x="590" y="30" width="120" height="60" as="geometry" />
        </mxCell>
        <mxCell id="Z5KbD5RuV3KRp7joWpTC-8" value="Система" style="rounded=1;whiteSpace=wrap;html=1;" vertex="1" parent="1">
          <mxGeometry x="590" y="500" width="120" height="60" as="geometry" />
        </mxCell>
        <mxCell id="Z5KbD5RuV3KRp7joWpTC-9" value="" style="endArrow=none;dashed=1;html=1;dashPattern=1 3;strokeWidth=2;rounded=0;exitX=0.5;exitY=0;exitDx=0;exitDy=0;entryX=0.5;entryY=1;entryDx=0;entryDy=0;" edge="1" parent="1" source="Z5KbD5RuV3KRp7joWpTC-31" target="Z5KbD5RuV3KRp7joWpTC-7">
          <mxGeometry width="50" height="50" relative="1" as="geometry">
            <mxPoint x="290" y="250" as="sourcePoint" />
            <mxPoint x="340" y="200" as="targetPoint" />
          </mxGeometry>
        </mxCell>
        <mxCell id="Z5KbD5RuV3KRp7joWpTC-15" value="" style="html=1;verticalAlign=bottom;endArrow=block;curved=0;rounded=0;align=right;" edge="1" parent="1" target="Z5KbD5RuV3KRp7joWpTC-31">
          <mxGeometry width="80" relative="1" as="geometry">
            <mxPoint x="100" y="120" as="sourcePoint" />
            <mxPoint x="640" y="120" as="targetPoint" />
          </mxGeometry>
        </mxCell>
        <mxCell id="Z5KbD5RuV3KRp7joWpTC-21" value="" style="html=1;verticalAlign=bottom;endArrow=block;curved=0;rounded=0;" edge="1" parent="1" target="Z5KbD5RuV3KRp7joWpTC-31">
          <mxGeometry width="80" relative="1" as="geometry">
            <mxPoint x="100" y="160" as="sourcePoint" />
            <mxPoint x="653" y="160" as="targetPoint" />
          </mxGeometry>
        </mxCell>
        <mxCell id="Z5KbD5RuV3KRp7joWpTC-23" value="Выбор магазина" style="text;html=1;align=center;verticalAlign=middle;resizable=0;points=[];autosize=1;strokeColor=none;fillColor=none;" vertex="1" parent="1">
          <mxGeometry x="130" y="90" width="110" height="30" as="geometry" />
        </mxCell>
        <mxCell id="Z5KbD5RuV3KRp7joWpTC-24" value="Выбор продуктов" style="text;html=1;align=center;verticalAlign=middle;resizable=0;points=[];autosize=1;strokeColor=none;fillColor=none;" vertex="1" parent="1">
          <mxGeometry x="130" y="128" width="120" height="30" as="geometry" />
        </mxCell>
        <mxCell id="Z5KbD5RuV3KRp7joWpTC-25" value="" style="endArrow=classic;html=1;rounded=0;" edge="1" parent="1" target="Z5KbD5RuV3KRp7joWpTC-31">
          <mxGeometry width="50" height="50" relative="1" as="geometry">
            <mxPoint x="100" y="200" as="sourcePoint" />
            <mxPoint x="651.1764705882352" y="200" as="targetPoint" />
          </mxGeometry>
        </mxCell>
        <mxCell id="Z5KbD5RuV3KRp7joWpTC-26" value="Добавление продуктов в корзину" style="text;html=1;align=center;verticalAlign=middle;resizable=0;points=[];autosize=1;strokeColor=none;fillColor=none;" vertex="1" parent="1">
          <mxGeometry x="130" y="168" width="210" height="30" as="geometry" />
        </mxCell>
        <mxCell id="Z5KbD5RuV3KRp7joWpTC-28" value="" style="endArrow=none;dashed=1;html=1;dashPattern=1 3;strokeWidth=2;rounded=0;entryX=0.5;entryY=0;entryDx=0;entryDy=0;entryPerimeter=0;exitX=0.483;exitY=0.808;exitDx=0;exitDy=0;exitPerimeter=0;" edge="1" parent="1" source="Z5KbD5RuV3KRp7joWpTC-1" target="Z5KbD5RuV3KRp7joWpTC-27">
          <mxGeometry width="50" height="50" relative="1" as="geometry">
            <mxPoint x="94" y="68" as="sourcePoint" />
            <mxPoint x="95" y="500" as="targetPoint" />
          </mxGeometry>
        </mxCell>
        <mxCell id="Z5KbD5RuV3KRp7joWpTC-27" value="" style="html=1;points=[[0,0,0,0,5],[0,1,0,0,-5],[1,0,0,0,5],[1,1,0,0,-5]];perimeter=orthogonalPerimeter;outlineConnect=0;targetShapes=umlLifeline;portConstraint=eastwest;newEdgeStyle={&quot;curved&quot;:0,&quot;rounded&quot;:0};" vertex="1" parent="1">
          <mxGeometry x="90" y="110" width="10" height="380" as="geometry" />
        </mxCell>
        <mxCell id="Z5KbD5RuV3KRp7joWpTC-30" value="" style="endArrow=none;dashed=1;html=1;dashPattern=1 3;strokeWidth=2;rounded=0;entryX=0.511;entryY=0.725;entryDx=0;entryDy=0;entryPerimeter=0;exitX=0.5;exitY=0;exitDx=0;exitDy=0;exitPerimeter=0;" edge="1" parent="1" source="Z5KbD5RuV3KRp7joWpTC-4" target="Z5KbD5RuV3KRp7joWpTC-29">
          <mxGeometry width="50" height="50" relative="1" as="geometry">
            <mxPoint x="365" y="500" as="sourcePoint" />
            <mxPoint x="365" y="64" as="targetPoint" />
          </mxGeometry>
        </mxCell>
        <mxCell id="Z5KbD5RuV3KRp7joWpTC-29" value="" style="html=1;points=[[0,0,0,0,5],[0,1,0,0,-5],[1,0,0,0,5],[1,1,0,0,-5]];perimeter=orthogonalPerimeter;outlineConnect=0;targetShapes=umlLifeline;portConstraint=eastwest;newEdgeStyle={&quot;curved&quot;:0,&quot;rounded&quot;:0};" vertex="1" parent="1">
          <mxGeometry x="360" y="370" width="10" height="110" as="geometry" />
        </mxCell>
        <mxCell id="Z5KbD5RuV3KRp7joWpTC-32" value="" style="endArrow=none;dashed=1;html=1;dashPattern=1 3;strokeWidth=2;rounded=0;exitX=0.5;exitY=0;exitDx=0;exitDy=0;entryX=0.5;entryY=1;entryDx=0;entryDy=0;" edge="1" parent="1" source="Z5KbD5RuV3KRp7joWpTC-8" target="Z5KbD5RuV3KRp7joWpTC-31">
          <mxGeometry width="50" height="50" relative="1" as="geometry">
            <mxPoint x="650" y="500" as="sourcePoint" />
            <mxPoint x="650" y="90" as="targetPoint" />
          </mxGeometry>
        </mxCell>
        <mxCell id="Z5KbD5RuV3KRp7joWpTC-31" value="" style="html=1;points=[[0,0,0,0,5],[0,1,0,0,-5],[1,0,0,0,5],[1,1,0,0,-5]];perimeter=orthogonalPerimeter;outlineConnect=0;targetShapes=umlLifeline;portConstraint=eastwest;newEdgeStyle={&quot;curved&quot;:0,&quot;rounded&quot;:0};" vertex="1" parent="1">
          <mxGeometry x="645" y="110" width="10" height="380" as="geometry" />
        </mxCell>
        <mxCell id="Z5KbD5RuV3KRp7joWpTC-33" value="" style="endArrow=classic;html=1;rounded=0;" edge="1" parent="1" target="Z5KbD5RuV3KRp7joWpTC-31">
          <mxGeometry width="50" height="50" relative="1" as="geometry">
            <mxPoint x="100" y="240" as="sourcePoint" />
            <mxPoint x="340" y="100" as="targetPoint" />
          </mxGeometry>
        </mxCell>
        <mxCell id="Z5KbD5RuV3KRp7joWpTC-34" value="Ввод данных (Куда доставлять в какое время)" style="text;html=1;align=center;verticalAlign=middle;resizable=0;points=[];autosize=1;strokeColor=none;fillColor=none;" vertex="1" parent="1">
          <mxGeometry x="90" y="210" width="280" height="30" as="geometry" />
        </mxCell>
        <mxCell id="Z5KbD5RuV3KRp7joWpTC-35" value="" style="endArrow=classic;html=1;rounded=0;" edge="1" parent="1" target="Z5KbD5RuV3KRp7joWpTC-31">
          <mxGeometry width="50" height="50" relative="1" as="geometry">
            <mxPoint x="100" y="280" as="sourcePoint" />
            <mxPoint x="260" y="180" as="targetPoint" />
          </mxGeometry>
        </mxCell>
        <mxCell id="Z5KbD5RuV3KRp7joWpTC-36" value="Подтверждение заказа" style="text;html=1;align=center;verticalAlign=middle;resizable=0;points=[];autosize=1;strokeColor=none;fillColor=none;" vertex="1" parent="1">
          <mxGeometry x="140" y="250" width="150" height="30" as="geometry" />
        </mxCell>
        <mxCell id="Z5KbD5RuV3KRp7joWpTC-37" value="" style="endArrow=classic;html=1;rounded=0;" edge="1" parent="1" target="Z5KbD5RuV3KRp7joWpTC-31">
          <mxGeometry width="50" height="50" relative="1" as="geometry">
            <mxPoint x="100" y="320" as="sourcePoint" />
            <mxPoint x="310" y="200" as="targetPoint" />
          </mxGeometry>
        </mxCell>
        <mxCell id="Z5KbD5RuV3KRp7joWpTC-38" value="Оплата" style="text;html=1;align=center;verticalAlign=middle;resizable=0;points=[];autosize=1;strokeColor=none;fillColor=none;" vertex="1" parent="1">
          <mxGeometry x="140" y="288" width="60" height="30" as="geometry" />
        </mxCell>
        <mxCell id="Z5KbD5RuV3KRp7joWpTC-39" value="" style="endArrow=classic;html=1;rounded=0;" edge="1" parent="1">
          <mxGeometry width="50" height="50" relative="1" as="geometry">
            <mxPoint x="640" y="360" as="sourcePoint" />
            <mxPoint x="100" y="360" as="targetPoint" />
          </mxGeometry>
        </mxCell>
        <mxCell id="Z5KbD5RuV3KRp7joWpTC-40" value="Подтверждение заказа" style="text;html=1;align=center;verticalAlign=middle;resizable=0;points=[];autosize=1;strokeColor=none;fillColor=none;" vertex="1" parent="1">
          <mxGeometry x="460" y="330" width="150" height="30" as="geometry" />
        </mxCell>
        <mxCell id="Z5KbD5RuV3KRp7joWpTC-43" value="" style="endArrow=classic;html=1;rounded=0;" edge="1" parent="1" target="Z5KbD5RuV3KRp7joWpTC-29">
          <mxGeometry width="50" height="50" relative="1" as="geometry">
            <mxPoint x="640" y="400" as="sourcePoint" />
            <mxPoint x="380" y="400" as="targetPoint" />
          </mxGeometry>
        </mxCell>
        <mxCell id="Z5KbD5RuV3KRp7joWpTC-44" value="Оповещение курьера" style="text;html=1;align=center;verticalAlign=middle;resizable=0;points=[];autosize=1;strokeColor=none;fillColor=none;" vertex="1" parent="1">
          <mxGeometry x="470" y="370" width="140" height="30" as="geometry" />
        </mxCell>
        <mxCell id="Z5KbD5RuV3KRp7joWpTC-46" value="" style="endArrow=classic;html=1;rounded=0;" edge="1" parent="1" target="Z5KbD5RuV3KRp7joWpTC-27">
          <mxGeometry width="50" height="50" relative="1" as="geometry">
            <mxPoint x="360" y="400" as="sourcePoint" />
            <mxPoint x="380" y="420" as="targetPoint" />
          </mxGeometry>
        </mxCell>
        <mxCell id="Z5KbD5RuV3KRp7joWpTC-47" value="Доставляет заказ" style="text;html=1;align=center;verticalAlign=middle;resizable=0;points=[];autosize=1;strokeColor=none;fillColor=none;" vertex="1" parent="1">
          <mxGeometry x="140" y="370" width="120" height="30" as="geometry" />
        </mxCell>
      </root>
    </mxGraphModel>
  </diagram>
</mxfile>
